<?xml version="1.0" encoding="utf-8"?>
<!-- Generator: Adobe Illustrator 16.0.0, SVG Export Plug-In . SVG Version: 6.00 Build 0)  -->
<!DOCTYPE svg PUBLIC "-//W3C//DTD SVG 1.1//EN" "http://www.w3.org/Graphics/SVG/1.1/DTD/svg11.dtd">
<svg version="1.1" id="Layer_1" xmlns="http://www.w3.org/2000/svg" xmlns:xlink="http://www.w3.org/1999/xlink" x="0px" y="0px"
	 width="500px" height="500px" viewBox="0 0 500 500" enable-background="new 0 0 500 500" xml:space="preserve">
<g id="Layer_1_copy_58">
	<g>
		<g>
			
				<path fill="#C8E9F1" stroke="#28140F" stroke-width="4.5837" stroke-linecap="round" stroke-linejoin="round" stroke-miterlimit="10" d="
				M515.201,332.527"/>
		</g>
		<g>
			<g>
				<path fill="#F4BE78" d="M309.3,285.236c0,0-16.262,18.996-26.522,21.023c-0.786-1.479-16.409-31.708-16.409-31.708
					l-10.233,4.656l16.783,41.364c0,0,25.797,4.041,48.908-18.494c23.11-22.536,1.389-15.04,1.389-15.04L309.3,285.236z"/>
			</g>
			<g>
				<path fill="#211010" d="M277.785,322.574c-3.167,0-5.057-0.292-5.137-0.305c-0.598-0.095-1.098-0.492-1.325-1.054l-16.783-41.36
					c-0.343-0.856,0.044-1.83,0.885-2.211l10.233-4.654c0.826-0.383,1.814-0.043,2.236,0.773
					c0.144,0.271,12.73,24.633,15.772,30.491c9.629-3.073,24.176-19.958,24.33-20.136c0.378-0.441,0.95-0.655,1.526-0.587
					l13.523,1.751c1.041-0.327,3.91-1.161,6.323-1.161c2.967,0,4.109,1.278,4.549,2.353c0.896,2.198,0.301,5.918-10.896,16.836
					C305.835,320.066,287.302,322.574,277.785,322.574z M274.124,318.979c0.789,0.07,2.04,0.154,3.661,0.154
					c8.994,0,26.521-2.375,42.841-18.285c10.746-10.479,10.155-12.939,10.112-13.074l0,0c-0.021,0-0.336-0.213-1.366-0.213
					c-1.969,0-4.705,0.795-5.594,1.104c-0.253,0.087-0.521,0.111-0.785,0.08l-12.999-1.686c-3.143,3.56-17.205,18.977-26.887,20.887
					c-0.758,0.146-1.496-0.211-1.854-0.881c-0.688-1.303-12.497-24.156-15.662-30.271l-7.241,3.298L274.124,318.979z"/>
			</g>
		</g>
		<g>
			<g>
				<path fill="#F4BE78" d="M351.951,310.979c0,0,30.635,47.138,40.88,81.295c3.747-1.551,10.238-5.84,10.238-5.84
					s-23.856-78.287-31.4-83.461c-7.556-5.17-18.637-5.861-18.637-5.861L351.951,310.979z"/>
			</g>
			<g>
				<path fill="#211010" d="M392.831,393.994c-0.253,0-0.505-0.057-0.738-0.167c-0.438-0.209-0.769-0.593-0.911-1.058
					c-10.052-33.529-40.365-80.387-40.671-80.856c-0.209-0.313-0.303-0.69-0.272-1.067l1.082-13.869
					c0.07-0.935,0.899-1.647,1.818-1.58c0.473,0.03,11.65,0.78,19.501,6.162c7.815,5.354,29.612,76.303,32.074,84.375
					c0.22,0.727-0.062,1.516-0.699,1.934c-0.271,0.182-6.671,4.398-10.524,5.997C393.275,393.949,393.056,393.994,392.831,393.994z
					 M353.71,310.537c3.232,5.042,30.051,47.414,40.183,79.349c2.521-1.28,5.566-3.179,7.152-4.188
					c-9.22-30.137-25.285-77.836-30.351-81.303c-5.387-3.688-12.8-4.981-16.085-5.394L353.71,310.537z"/>
			</g>
		</g>
		<g>
			<path fill="#3059A7" d="M330.56,263.727l-25.134,16.346c0,0,17.975,23.891,18.935,25.584
				c0.952,1.689,16.174-10.762,16.174-10.762l10.033,20.565l25.354-12.676l-13.75-22.433l1.805-2.986l-11.043-16.061L330.56,263.727
				z"/>
			<path fill="#28140F" d="M350.566,317.18c-0.188,0-0.371-0.027-0.553-0.091c-0.436-0.146-0.794-0.461-0.991-0.872l-9.09-18.629
				c-5.251,4.225-12.806,9.941-15.229,9.941l0,0c-0.788,0-1.479-0.383-1.843-1.03c-0.706-1.222-11.639-15.858-18.814-25.396
				c-0.283-0.377-0.396-0.862-0.313-1.33c0.083-0.471,0.354-0.883,0.754-1.144l25.134-16.344c0.225-0.146,0.485-0.241,0.754-0.269
				l22.372-2.427c0.644-0.067,1.248,0.218,1.603,0.737l11.041,16.062c0.386,0.555,0.407,1.283,0.058,1.86l-1.263,2.09l13.204,21.542
				c0.249,0.41,0.319,0.906,0.187,1.369c-0.135,0.465-0.454,0.852-0.885,1.062l-25.355,12.682
				C351.095,317.122,350.83,317.18,350.566,317.18z M340.533,293.173c0.123,0,0.245,0.017,0.367,0.041
				c0.513,0.113,0.946,0.453,1.176,0.927l9.274,19.008l22.124-11.062l-12.771-20.839c-0.336-0.545-0.336-1.232-0.005-1.783
				l1.231-2.035l-9.836-14.306l-20.943,2.269l-23.25,15.117c3.739,4.975,14.57,19.41,17.347,23.389
				c2.246-1.062,8.813-5.93,14.195-10.334C339.752,293.309,340.139,293.173,340.533,293.173z"/>
		</g>
		<g>
			<g>
				<path fill="#F4BE78" d="M404.031,231.823c0,0,8.79,2.481,14.881,4.462c2.749-0.679,13.21-16.298,13.21-16.298
					s-8.429-0.561-5.68-6.383c2.747-5.823,2.939-7.271,2.939-7.271s1.494-6.044,10.463-0.903c8.963,5.145,6.144,9.354,6.144,9.354
					s-3.408,8.987-8.549,6.257c-3.766,12.337-15.778,25.656-15.778,25.656s-0.422,2.544-22.354-3.038
					c-21.936-5.579-4.719-9.54-4.719-9.54L404.031,231.823z"/>
			</g>
			<g>
				<path fill="#211010" d="M419.09,248.992c-3.838,0-10.636-1.235-20.203-3.669c-8.754-2.225-12.471-4.418-12.438-7.342
					c0.038-3.397,5.436-5.006,7.756-5.539l9.42-2.288c0.284-0.071,0.584-0.067,0.872,0.016c0.082,0.024,8.277,2.339,14.293,4.268
					c1.686-1.227,6.328-7.291,10.439-13.248c-1.585-0.469-3.433-1.345-4.402-2.994c-0.62-1.057-1.112-2.836,0.062-5.326
					c2.48-5.259,2.785-6.757,2.802-6.821c0.391-1.605,2.103-4.411,5.965-4.411c2.012,0,4.384,0.778,7.046,2.3
					c4.174,2.395,6.621,5.007,7.259,7.757c0.45,1.909-0.133,3.298-0.418,3.827c-0.488,1.247-3.294,7.752-8.166,7.752
					c-0.28,0-0.563-0.021-0.846-0.068c-4.059,11.362-13.926,22.761-15.416,24.449C422.301,248.992,419.938,248.992,419.09,248.992z
					 M389.876,238.111c0.078,0,1.049,1.642,9.858,3.882c11.574,2.943,16.913,3.562,19.354,3.562c0.767,0,1.185-0.064,1.38-0.106
					c1.07-1.211,11.885-13.626,15.324-24.91c0.149-0.494,0.514-0.892,0.985-1.085c0.474-0.197,1.016-0.169,1.465,0.067
					c0.401,0.213,0.77,0.315,1.132,0.315c2.157,0,4.304-3.815,5.003-5.665c0.047-0.119,0.109-0.237,0.182-0.347
					c0.521-0.935,0.078-3.661-5.57-6.905c-2.106-1.207-3.949-1.842-5.334-1.842c-2.024,0-2.529,1.413-2.612,1.697
					c-0.012,0.185-0.391,1.933-3.044,7.562c-0.648,1.369-0.317,1.929-0.21,2.114c0.701,1.188,3.349,1.749,4.446,1.823
					c0.614,0.04,1.154,0.402,1.428,0.954c0.271,0.549,0.229,1.208-0.114,1.717c-4.044,6.036-11.269,16.277-14.222,17.007
					c-0.313,0.075-0.641,0.063-0.947-0.036c-5.223-1.7-12.542-3.795-14.384-4.32l-8.999,2.189c-2.359,0.549-4.838,1.673-5.125,2.324
					h0.004V238.111z"/>
			</g>
		</g>
		<g>
			<path fill="#CE6F28" d="M385.391,201.737c0,0,8.454,20.286,18.037,25.304c0.729,13.299-9.644,17.753-9.644,17.753l-12.225-8.624
				L385.391,201.737z"/>
			<path fill="#28140F" d="M393.784,246.511c-0.347,0-0.693-0.102-0.989-0.316l-12.227-8.62c-0.513-0.359-0.784-0.971-0.719-1.594
				l3.831-34.429c0.084-0.781,0.691-1.404,1.463-1.516c0.79-0.114,1.528,0.32,1.832,1.042c0.083,0.197,8.328,19.773,17.248,24.44
				c0.537,0.28,0.885,0.825,0.919,1.428c0.786,14.333-10.563,19.375-10.68,19.425C394.248,246.463,394.019,246.511,393.784,246.511z
				 M383.378,235.353l10.546,7.433c2.193-1.27,7.949-5.488,7.815-14.727c-6.443-3.961-12.151-13.761-15.32-20.045L383.378,235.353z"
				/>
		</g>
		<g>
			<path fill="#F58020" d="M378.328,198.017c0,0-17.436-1.799-25.851,1.207c-8.413,3.005-17.584-0.903-17.584-0.903
				s-0.343,2.189-0.53,5.25c-0.396,6.384-0.096,16.562,5.493,18.495c4.962-1.054,15.63-1.957,15.63-1.957
				s-17.136,30.808-26.004,36.517c-8.861,5.712,24.138,26.569,44.785,19.69c14.883-4.959,13.379-71.085,11.122-75.292
				C383.138,196.816,378.328,198.017,378.328,198.017z"/>
			<path fill="#28140F" d="M365.092,279.41h-0.003c-16.396,0-36.261-10.901-38.564-18.732c-0.658-2.238,0.079-4.24,2.027-5.498
				c6.864-4.416,19.359-25.345,23.807-33.054c-3.522,0.352-9.038,0.959-12.147,1.622c-0.3,0.066-0.624,0.047-0.92-0.06
				c-6.383-2.205-7.136-12.214-6.646-20.222c0.196-3.105,0.54-5.319,0.557-5.413c0.083-0.521,0.402-0.975,0.864-1.236
				c0.466-0.26,1.018-0.283,1.503-0.079c0.047,0.016,4.561,1.902,9.94,1.902c2.316,0,4.472-0.347,6.396-1.038
				c3.417-1.219,8.519-1.838,15.161-1.838c5.393,0,10.027,0.41,11.177,0.521c0.34-0.063,0.924-0.142,1.642-0.142
				c3.124,0,5.617,1.443,7.021,4.071c2.266,4.229,3.291,49.24-4.336,68.414c-2.078,5.224-4.61,8.272-7.756,9.317
				C371.894,278.917,368.622,279.41,365.092,279.41z M355.486,218.394c0.579,0,1.124,0.292,1.442,0.785
				c0.345,0.532,0.368,1.211,0.057,1.768c-0.707,1.274-17.446,31.248-26.571,37.123c-0.667,0.432-0.82,0.859-0.595,1.639
				c1.577,5.354,18.896,16.266,35.271,16.266l0,0c3.165,0,6.068-0.435,8.632-1.289c1.913-0.64,3.682-2.771,5.24-6.342
				c7.858-17.966,6.64-62.676,4.899-66.523c-0.794-1.48-2.135-2.241-3.98-2.241c-0.676,0-1.145,0.11-1.153,0.11
				c-0.184,0.043-0.382,0.059-0.577,0.04c-0.054-0.004-5.179-0.528-11.088-0.528c-6.161,0-11.003,0.567-14.005,1.641
				c-2.295,0.82-4.837,1.234-7.552,1.234c-3.779,0-7.124-0.801-9.173-1.428c-0.089,0.829-0.186,1.871-0.256,3.03
				c-0.561,9.114,0.873,15.11,3.94,16.598c5.173-1.014,14.895-1.842,15.318-1.877C355.391,218.394,355.438,218.394,355.486,218.394z
				"/>
		</g>
		<g>
			<g>
				<path fill="#F4BE78" d="M332.126,203.599l-11.098,2.229c0,0-1.116,13.816,5.713,24.736c6.828,10.921,7.421,13.509,7.421,13.509
					l-3.989,9.307c0,0,5.74,9.246,13.166,4.179c7.416-5.062,5.271-10.886,3.033-13.06c-2.229-2.173-6.894-2.955-6.894-2.955
					s-0.919-16.7-1.052-18.179C329.96,218.831,332.126,203.599,332.126,203.599z"/>
			</g>
			<g>
				<path fill="#211010" d="M338.821,260.795L338.821,260.795c-5.996,0-9.945-6.24-10.107-6.509c-0.3-0.478-0.344-1.069-0.122-1.582
					l3.729-8.699c-0.446-1.109-2.014-4.502-7.035-12.527c-7.051-11.275-6.021-25.201-5.973-25.79
					c0.062-0.762,0.624-1.393,1.377-1.542l11.098-2.232c0.54-0.111,1.112,0.051,1.519,0.433c0.402,0.383,0.601,0.939,0.521,1.492
					c-0.016,0.142-1.89,14.1,5.413,18.01c0.513,0.272,0.849,0.785,0.898,1.361c0.114,1.258,0.767,12.932,0.982,16.929
					c1.729,0.426,4.646,1.369,6.451,3.128c1.432,1.389,2.867,3.984,2.595,7.098c-0.188,2.232-1.364,5.542-5.858,8.611
					C342.541,260.184,340.695,260.795,338.821,260.795z M332.131,253.173c1.037,1.354,3.569,4.183,6.69,4.183
					c1.171,0,2.362-0.406,3.547-1.219c2.678-1.826,4.192-3.927,4.375-6.068c0.166-1.917-0.742-3.53-1.566-4.336
					c-1.508-1.468-4.829-2.299-5.984-2.497c-0.788-0.134-1.385-0.797-1.43-1.598c-0.274-5.05-0.796-14.27-0.984-17.256
					c-6.525-4.253-6.817-14.084-6.569-18.646l-7.518,1.511c-0.068,3.586,0.247,13.994,5.507,22.405
					c6.646,10.625,7.531,13.559,7.642,14.041c0.078,0.355,0.048,0.727-0.095,1.058L332.131,253.173z"/>
			</g>
		</g>
		<g>
			<g>
				<path fill="#F4BE78" d="M416.797,126.641c0,0,6.313,5.104,6.913,17.729c0.474,9.863,5.341,11.836,7.452,12.23
					c0.592,0.106,1.132,0.283,1.342,0.611c0.765,1.212,2.103,4.257-2.179,6.396c-3.455,1.724-1.503,5.408-1.503,5.408
					s9.915,24.946-42.383,19.837c-2.559,0.513-2.063,10.179-1.861,13.035c0.019,0.315-0.021,0.95-0.166,1.207
					c-1.011,1.776-5.265,8.14-9.153-3.025c-0.074-0.205,2.09-8.928,2.09-8.928s2.104-2.249-5.936-7.997
					c-9.583-6.857-10.215-21.04-10.215-21.04l8.415-31.558l31.258-8.719L416.797,126.641z"/>
			</g>
			<g>
				<path fill="#211010" d="M380.312,208.226c-2.716,0-4.9-2.481-6.68-7.59c-0.217-0.607-0.246-0.682,2.047-9.91
					c0.043-0.166,0.107-0.324,0.193-0.469c-0.035-0.332-0.47-2.15-5.46-5.717c-10.146-7.255-10.908-21.746-10.937-22.357
					c-0.009-0.178,0.014-0.352,0.06-0.524l8.415-31.558c0.159-0.587,0.611-1.049,1.199-1.21l31.258-8.719
					c0.315-0.083,0.646-0.079,0.958,0.016l15.928,4.806c0.213,0.067,0.414,0.17,0.583,0.311c0.285,0.225,6.92,5.745,7.548,18.989
					c0.414,8.644,4.371,10.301,6.052,10.617c0.777,0.142,1.884,0.441,2.479,1.388c0.58,0.912,1.472,2.757,0.899,4.821
					c-0.457,1.653-1.726,3.009-3.761,4.027c-0.825,0.411-0.975,0.88-1.024,1.038c-0.249,0.778,0.156,1.811,0.271,2.028
					c0.189,0.454,2.751,7.089-1.456,13.287c-5.514,8.124-19.7,11.22-41.987,9.125c-0.524,0.987-1.073,4.549-0.608,11.146
					c0.014,0.135,0.084,1.365-0.389,2.186C384.999,205.543,383.066,208.226,380.312,208.226z M377.022,199.902
					c1.312,3.602,2.584,4.888,3.285,4.888c0.688,0,1.761-1.045,2.607-2.541c-0.066,0.106-0.048-0.134-0.055-0.241
					c-0.986-13.993,2.087-14.613,3.243-14.842c0.165-0.035,0.335-0.043,0.505-0.028c20.924,2.052,34.722-0.635,39.432-7.571
					c3.191-4.707,1.204-9.867,1.185-9.918c-0.051-0.071-1.152-2.257-0.428-4.517c0.423-1.314,1.373-2.371,2.762-3.065
					c0.774-0.387,1.748-1.026,1.98-1.874c0.186-0.655-0.095-1.361-0.351-1.827c-0.075-0.023-0.186-0.051-0.34-0.074
					c-2.489-0.466-8.327-2.747-8.856-13.84c-0.489-10.282-5.006-15.253-6.062-16.282l-15.079-4.553l-29.828,8.321l-8.094,30.331
					c0.146,1.857,1.376,13.677,9.485,19.473c4.398,3.148,6.646,5.815,6.883,8.158c0.087,0.872-0.126,1.511-0.346,1.921
					C378.127,195.152,377.259,198.762,377.022,199.902z"/>
			</g>
		</g>
		<g>
			<path fill="#4C230D" d="M385.541,155.188c0,0-6.313-9.015-9.619,0.903c-3.303,9.918,4.51,9.918,4.51,9.918
				s-2.104,21.344-12.925,18.638c-10.817-2.707-38.772-24.95-13.522-53.801c25.243-28.851,60.712-13.224,60.712-13.224
				s12.562,1.803,15.63,1.803c2.553,0-7.812,13.22-18.033,8.715c-4.21,3.006-15.03,3.605-15.03,3.605
				S399.367,149.479,385.541,155.188z"/>
			<path fill="#28140F" d="M369.349,186.603c-0.732,0-1.49-0.099-2.256-0.292c-7.465-1.866-19.88-11.094-23.786-23.572
				c-2.348-7.492-2.623-19.304,9.383-33.026c10.324-11.799,24.037-18.037,39.655-18.037c12.046,0,21.241,3.618,22.819,4.272
				c3.625,0.521,12.795,1.756,15.161,1.756l0,0c0.772,0,1.456,0.382,1.826,1.021c0.715,1.235-0.113,2.671-0.383,3.14
				c-1.616,2.797-7.642,8.929-15.043,8.929c-1.46,0-2.888-0.249-4.253-0.734c-3.771,2.162-10.258,2.99-13.401,3.274
				c0.105,4.888-0.733,18.428-12.877,23.442c-0.741,0.3-1.599,0.055-2.06-0.599c-0.692-0.987-2.584-3.022-3.978-3.022
				c-1.257,0-2.173,2.177-2.604,3.48c-0.94,2.82-0.971,4.966-0.088,6.218c0.987,1.388,2.955,1.439,2.978,1.439
				c0.479,0.004,0.941,0.217,1.262,0.572c0.324,0.359,0.48,0.837,0.434,1.314c-0.077,0.833-2.134,20.42-12.786,20.424
				L369.349,186.603L369.349,186.603z M392.345,115.112c-14.806,0-27.279,5.673-37.067,16.862
				c-8.799,10.057-11.722,20.061-8.69,29.738c3.826,12.214,15.787,19.876,21.339,21.265c0.493,0.122,0.976,0.185,1.424,0.185
				c5.669,0,8.354-10.202,9.174-15.726c-1.208-0.335-2.738-1.046-3.826-2.556c-1.596-2.21-1.733-5.35-0.407-9.334
				c1.293-3.867,3.267-5.831,5.87-5.831c2.505,0,4.703,2.012,5.888,3.357c11.168-5.614,9.586-20.476,9.506-21.126
				c-0.051-0.47,0.088-0.943,0.396-1.306c0.304-0.363,0.746-0.58,1.22-0.607c2.872-0.162,11.01-1.069,14.123-3.294
				c0.494-0.351,1.14-0.418,1.696-0.169c1.187,0.52,2.445,0.789,3.739,0.785c5.012,0,9.657-3.989,11.485-6.333
				c-4.633-0.394-13.328-1.637-13.762-1.7c-0.154-0.021-0.308-0.063-0.446-0.126C413.909,119.156,404.56,115.112,392.345,115.112z"
				/>
		</g>
		<g>
			<path fill="#7D421F" d="M402.74,385.5c0,0,2.14,6.773,4.511,3.756c3.227-5.562,10.746-7.295,19.39-5.492
				c8.642,1.803,1.729,6.383-1.73,11.422c-3.456,5.033-19.75,18.547-23.88,15.84c-4.131-2.705-8.991-21.662-8.991-21.662
				C391.888,390.105,400.484,383.843,402.74,385.5z"/>
			<path fill="#28140F" d="M402.414,413.094c-0.9,0-1.686-0.213-2.328-0.631c-4.288-2.809-8.51-18.025-9.701-22.621
				c0,0-0.005-0.015-0.008-0.025c0-0.006,0-0.008,0-0.014c-0.004-0.012-0.009-0.017-0.009-0.017l0,0
				c-0.061-0.249-0.07-0.509-0.021-0.763c0.149-0.765,0.803-1.328,1.574-1.379c0.34-0.174,0.884-0.481,1.346-0.746
				c4.298-2.435,8.388-4.33,10.485-2.789c0.293,0.217,0.513,0.521,0.624,0.867c0.396,1.234,1.068,2.576,1.552,3.137
				c2.683-4.358,7.791-6.754,14.432-6.754c2.105,0,4.336,0.242,6.631,0.719c1.94,0.406,4.604,1.197,5.354,3.4
				c0.84,2.48-1.256,4.924-3.476,7.508c-0.894,1.033-1.815,2.105-2.545,3.172C423.066,400.9,408.853,413.094,402.414,413.094z
				 M394.085,390.387c2.312,8.518,5.725,17.784,7.882,19.196c0.012,0.009,0.123,0.075,0.447,0.075
				c4.493,0,17.749-10.602,21.078-15.449c0.837-1.215,1.817-2.357,2.771-3.463c0.985-1.148,3.037-3.539,2.828-4.163
				c-0.004-0.004-0.314-0.619-2.802-1.138c-2.062-0.432-4.061-0.649-5.929-0.649c-5.503,0-9.636,1.89-11.626,5.322
				c-0.04,0.067-0.084,0.134-0.136,0.198c-0.927,1.183-1.935,1.432-2.61,1.432c-2.364,0-3.852-2.904-4.577-4.834
				c-1.665,0.27-4.863,2.08-6.449,2.979C394.63,390.08,394.337,390.246,394.085,390.387z"/>
		</g>
		<g>
			<path fill="#7D421F" d="M257.177,281.33l-2.087-4.848c0,0-23.886,13.658-30.122,2.916c-6.234-10.748,31.335-20.065,31.335-20.065
				s3.438-2.336,10.949,17.05C267.252,276.682,257.177,281.33,257.177,281.33z"/>
			<path fill="#28140F" d="M233.532,285.236c-4.749,0-8.135-1.674-10.052-4.976c-1.089-1.877-1.219-3.917-0.383-5.891
				c3.886-9.169,29.032-15.765,32.633-16.668c0.242-0.095,0.564-0.177,0.963-0.177c3.43,0,7.404,5.963,12.164,18.233
				c0.074,0.201,0.113,0.409,0.113,0.622c0,1.35,0,1.4-11.072,6.51c-0.424,0.193-0.904,0.211-1.338,0.045
				c-0.431-0.166-0.783-0.498-0.963-0.924l-1.347-3.129C250.478,280.841,241.154,285.236,233.532,285.236z M256.738,260.997
				c-0.008,0-0.018,0-0.023,0.009c-7.528,1.865-27.671,8.15-30.454,14.703c-0.413,0.982-0.351,1.883,0.194,2.825
				c1.274,2.196,3.59,3.263,7.077,3.263c8.695,0,20.587-6.738,20.704-6.811c0.427-0.24,0.935-0.291,1.396-0.135
				c0.465,0.154,0.842,0.498,1.035,0.947l1.389,3.23c2.797-1.301,5.57-2.627,7.062-3.389
				C260.096,263.049,257.307,261.241,256.738,260.997z"/>
		</g>
		<g>
			<g>
				<path fill="#DB9C57" d="M166.278,98.609c0,0,6.372,5.492,6.58,18.583c0.171,10.222,5.153,12.423,7.319,12.9
					c0.611,0.13,1.168,0.331,1.369,0.675c0.762,1.274,2.04,4.474-2.457,6.553c-3.635,1.672-1.736,5.551-1.736,5.551
					s14.293,26.701-39.681,19.725c-2.667,0.45-3.085,12.629-7.185,12.877c-0.323,0.024-0.044,0.986-0.205,1.247
					c-1.1,1.807-5.716,8.253-9.382-3.428c-0.07-0.217,2.454-9.177,2.454-9.177s2.249-2.261-5.886-8.47
					c-9.701-7.406-9.901-22.109-9.901-22.109l9.728-32.406l32.643-8.013L166.278,98.609z"/>
			</g>
			<g>
				<path fill="#211010" d="M126.003,181.841c-4.222,0-6.115-6.048-6.743-8.037c-0.2-0.603-0.228-0.683,2.442-10.155
					c0.048-0.17,0.122-0.331,0.217-0.478c-0.012-0.328-0.343-2.233-5.496-6.162c-10.245-7.82-10.564-22.819-10.576-23.45
					c0-0.178,0.023-0.351,0.075-0.521l9.729-32.401c0.174-0.583,0.647-1.03,1.234-1.176l32.647-8.016
					c0.315-0.075,0.647-0.059,0.955,0.043l16.34,5.491c0.209,0.071,0.406,0.182,0.575,0.327c0.284,0.245,6.957,6.155,7.178,19.856
					c0.146,9.006,4.222,10.865,5.965,11.248c0.793,0.169,1.918,0.513,2.489,1.491c0.561,0.943,1.421,2.86,0.769,4.959
					c-0.524,1.685-1.864,3.034-3.992,4.017c-0.596,0.276-0.962,0.623-1.124,1.065c-0.288,0.797,0.06,1.843,0.217,2.181
					c0.139,0.253,4.099,7.82,0.121,14.46c-4.769,7.965-18.583,10.604-40.95,7.795c-0.476,0.73-1.073,2.754-1.486,4.139
					c-0.999,3.373-2.11,7.121-4.562,8.305c-0.038,0.272-0.122,0.537-0.279,0.797C130.788,179.194,128.756,181.841,126.003,181.841
					L126.003,181.841z M122.674,173.178c1.27,3.854,2.576,5.231,3.329,5.229c0.676,0,1.725-0.916,2.607-2.261
					c0.017-2.118,1.35-2.355,1.775-2.382c1.08-0.068,2.312-4.222,2.908-6.222c1.033-3.495,1.857-6.265,4.092-6.64
					c0.169-0.028,0.338-0.031,0.508-0.007c20.822,2.69,34.236,0.513,38.186-6.076c2.986-4.987-0.205-11.074-0.237-11.138
					c-0.153-0.304-1.214-2.576-0.398-4.872c0.474-1.33,1.483-2.387,2.928-3.05c0.828-0.378,1.869-1.025,2.146-1.917
					c0.222-0.707-0.059-1.472-0.319-1.969c-0.082-0.027-0.201-0.063-0.382-0.102c-2.549-0.556-8.487-3.089-8.676-14.554
					c-0.17-10.711-4.728-16.018-5.777-17.102l-15.5-5.212l-31.202,7.666l-9.364,31.191c0.086,1.902,0.97,14.23,9.214,20.523
					c4.439,3.385,6.676,6.206,6.838,8.624c0.063,0.891-0.174,1.539-0.415,1.945C123.967,168.29,122.944,172.021,122.674,173.178z"/>
			</g>
		</g>
		<g>
			<path fill="#381A0E" d="M132.993,127.161c0,0-6.244-9.539-9.984,0.624c-3.744,10.163,4.347,10.415,4.347,10.415
				s-2.867,22.026-13.98,18.878c-11.115-3.152-39.338-27.08-12.266-56.14c27.063-29.056,63.28-11.732,63.28-11.732
				s12.947,2.272,16.124,2.371c2.647,0.083-8.514,13.438-18.952,8.443c-4.455,2.979-15.675,3.251-15.675,3.251
				S147.492,121.693,132.993,127.161z"/>
			<path fill="#28140F" d="M115.492,159.101c-0.839,0-1.711-0.126-2.588-0.37c-7.649-2.17-20.184-12.108-23.82-25.131
				c-2.183-7.819-2.088-20.034,10.766-33.83c10.759-11.552,24.117-17.411,39.7-17.411c13.406,0,23.691,4.431,25.36,5.192
				c3.731,0.651,13.205,2.229,15.659,2.309c1.19,0.035,2.074,0.962,2.058,2.158c-0.046,3.033-7.759,10.837-16.135,10.841
				c-1.669,0-3.279-0.312-4.813-0.915c-3.981,2.134-10.781,2.777-14.033,2.966c-0.031,5.003-1.297,19.052-14.049,23.861
				c-0.749,0.28-1.597,0.004-2.039-0.667c-0.706-1.069-2.644-3.286-4.11-3.286c-1.318,0-2.336,2.233-2.829,3.563
				c-1.073,2.918-1.168,5.172-0.264,6.509c1.006,1.487,3.037,1.59,3.054,1.594c0.483,0.012,0.941,0.233,1.257,0.6
				c0.313,0.371,0.458,0.856,0.395,1.337C128.949,139.269,126.243,159.101,115.492,159.101z M139.55,85.8
				c-14.593,0-27.103,5.488-37.183,16.31c-9.449,10.143-12.802,20.424-9.974,30.563c3.575,12.794,15.734,21.13,21.45,22.748
				c0.568,0.162,1.124,0.244,1.646,0.244c5.839,0,8.908-10.462,9.915-16.092c-1.236-0.378-2.814-1.152-3.898-2.761
				c-1.567-2.324-1.605-5.559-0.115-9.623c1.424-3.854,3.46-5.807,6.057-5.807c2.658,0,4.926,2.233,6.123,3.677
				c11.862-5.496,10.62-21.478,10.604-21.643c-0.04-0.47,0.114-0.939,0.429-1.294c0.319-0.351,0.766-0.56,1.243-0.572
				c2.983-0.075,11.449-0.75,14.759-2.959c0.506-0.339,1.149-0.383,1.696-0.122c1.317,0.627,2.727,0.951,4.186,0.951
				c5.165,0,10.01-3.989,11.899-6.301c-4.75-0.548-13.844-2.142-14.297-2.221c-0.151-0.028-0.3-0.075-0.441-0.142
				C163.546,90.708,153.091,85.8,139.55,85.8z"/>
		</g>
		<g>
			<g>
				<path fill="#DB9C57" d="M117.727,304.6c0,0-2.944,21.461-13.761,35.793c-10.811,14.325-36.431,33.256-36.431,33.256
					l-10.093-0.821l1.521-8.104c0,0,29.762-35.021,32.886-41.144c4.551-7.954,3.142-19.681,3.142-19.681l5.298-13.939L117.727,304.6
					z"/>
			</g>
			<g>
				<path fill="#211010" d="M67.535,375.363c-0.048,0-0.095,0-0.143-0.004l-10.091-0.823c-0.485-0.036-0.932-0.281-1.223-0.667
					c-0.296-0.387-0.415-0.883-0.328-1.361l1.522-8.101c0.056-0.29,0.187-0.566,0.383-0.796
					C67.902,351.55,87.92,327.5,90.318,322.797c4.253-7.443,2.979-18.581,2.967-18.695c-0.034-0.275,0-0.553,0.099-0.812
					l5.298-13.938c0.198-0.521,0.637-0.916,1.176-1.055c0.537-0.142,1.112-0.012,1.536,0.348l17.437,14.642
					c0.453,0.379,0.679,0.962,0.596,1.546c-0.118,0.896-3.128,22.074-14.084,36.596c-10.838,14.359-35.731,32.823-36.786,33.602
					C68.257,375.25,67.902,375.363,67.535,375.363z M59.487,371.27l7.539,0.61c3.657-2.749,25.869-19.671,35.57-32.524
					c9.172-12.154,12.572-29.846,13.283-34.062l-14.842-12.463l-4.293,11.299c0.218,2.274,0.919,12.739-3.404,20.302
					c-3.011,5.902-29.483,37.18-32.772,41.058L59.487,371.27z"/>
			</g>
		</g>
		<g>
			<g>
				<path fill="#DB9C57" d="M145.134,295.991c0,0,8.343,13.579,13.034,33.446c4.687,19.869,3.369,54.215,3.369,54.215l-9.855,9.3
					l-3.835-8.211c0,0-2.039-40.013-9.941-54.166l-15.469-30.78l8.344-13.688L145.134,295.991z"/>
			</g>
			<g>
				<path fill="#211010" d="M151.682,394.671c-0.106,0-0.216-0.008-0.322-0.032c-0.546-0.102-1.003-0.461-1.236-0.957l-3.834-8.212
					c-0.095-0.2-0.146-0.418-0.158-0.638c-0.019-0.398-2.11-39.779-9.729-53.418l-15.504-30.848c-0.26-0.533-0.235-1.16,0.072-1.668
					l8.339-13.687c0.249-0.403,0.651-0.69,1.112-0.791c0.462-0.094,0.943,0,1.333,0.269l14.354,9.888
					c0.198,0.136,0.367,0.312,0.488,0.513c0.348,0.566,8.543,14.042,13.241,33.952c4.694,19.869,3.468,53.265,3.416,54.677
					c-0.019,0.45-0.213,0.871-0.541,1.18l-9.851,9.305C152.538,394.506,152.116,394.671,151.682,394.671z M149.548,384.32
					l2.683,5.752l7.606-7.186c0.153-4.968,0.875-35.191-3.342-53.059c-4.198-17.766-11.418-30.535-12.648-32.635l-12.546-8.641
					l-6.899,11.322l15.039,29.928C147.113,343.542,149.319,380.133,149.548,384.32z"/>
			</g>
		</g>
		<g>
			<path fill="#01A79D" d="M137.437,264.871l10.924,30.38c0,0-20.386,4.926-29.478,4.646c-9.095-0.282-4.731-34.791-4.731-34.791
				L137.437,264.871z"/>
			<path fill="#28140F" d="M119.666,301.625c-0.288,0-0.567-0.004-0.836-0.014c-1.491-0.041-2.84-0.726-3.898-1.967
				c-5.825-6.817-2.849-31.916-2.488-34.754c0.106-0.853,0.829-1.496,1.688-1.504l23.285-0.236c0.809-0.002,1.389,0.449,1.633,1.138
				l10.93,30.378c0.165,0.461,0.125,0.971-0.106,1.396c-0.229,0.431-0.633,0.742-1.105,0.856
				C147.969,297.111,129.19,301.625,119.666,301.625z M115.682,266.809c-0.91,8.217-1.987,26.094,1.866,30.605
				c0.565,0.659,1.065,0.754,1.39,0.762l0.729,0.012c7.426,0,21.393-3.025,26.422-4.174l-9.855-27.414L115.682,266.809z"/>
		</g>
		<g>
			<g>
				<path fill="#DB9C57" d="M70.688,231.767c0,0,11.477-24.227,25.371-31.604c13.895-7.374,3.607-13.892,3.607-13.892l-10.61-0.331
					c0,0-8.192,3.286-10.352,7.646c-3.141,3.441-19.067,31.771-19.812,35.286c-0.241,0.603-15.111,10.983-3.456,18.424
					c8.301,5.074,16.645-1.215,16.691-2.73c0.048-1.515,2.439-3.322,3.01-5.578C75.718,236.73,73.082,231.968,70.688,231.767z"/>
			</g>
			<g>
				<path fill="#211010" d="M62.188,250.96L62.188,250.96c-2.693,0-5.27-0.741-7.648-2.193c-3.278-2.094-5.033-4.623-5.256-7.543
					c-0.434-5.795,5.5-10.987,7.733-12.94c0.135-0.122,0.256-0.225,0.352-0.312c1.831-5.291,16.356-31.159,19.902-35.36
					c2.506-4.691,10.259-7.91,11.146-8.265c0.221-0.087,0.465-0.138,0.689-0.122l10.613,0.328c0.305,0.011,0.604,0.106,0.865,0.268
					c0.188,0.119,4.63,2.987,4.461,7.464c-0.13,3.425-2.884,6.589-8.182,9.401c-11.229,5.954-21.036,23.797-23.83,29.234
					c0.688,0.481,1.347,1.156,1.948,2c1.274,1.791,2.333,4.494,1.82,6.493c-0.367,1.452-1.267,2.679-1.984,3.661
					c-0.375,0.509-0.932,1.274-0.975,1.56C73.764,247.272,67.874,250.96,62.188,250.96z M89.372,187.672
					c-2.328,0.987-7.67,3.74-9.129,6.675c-0.068,0.142-0.163,0.276-0.27,0.395c-2.945,3.231-18.719,31.27-19.4,34.485
					c-0.018,0.094-0.048,0.189-0.084,0.276c-0.181,0.465-0.442,0.694-1.212,1.365c-1.7,1.487-6.872,6.017-6.562,10.1
					c0.133,1.779,1.359,3.42,3.648,4.881c1.802,1.104,3.774,1.671,5.825,1.671c4.258,0,7.607-2.417,8.243-3.306
					c0.146-1.164,0.893-2.181,1.609-3.168c0.603-0.821,1.228-1.672,1.433-2.485c0.142-0.552-0.237-2.169-1.296-3.649
					c-0.718-1.006-1.368-1.409-1.633-1.428c-0.563-0.051-1.065-0.367-1.345-0.856c-0.284-0.489-0.308-1.085-0.066-1.594
					c0.477-1.01,11.883-24.835,26.12-32.39c4.071-2.158,6.27-4.399,6.356-6.478c0.082-1.973-1.736-3.59-2.518-4.193L89.372,187.672z
					"/>
			</g>
		</g>
		<g>
			<path fill="#025439" d="M89.095,184.678c0,0,7.367,11.229,7.485,19.434c0.607,0.714,16.353-12.3,16.353-12.3l5.42-17.091
				C118.353,174.72,98.187,176.87,89.095,184.678z"/>
			<path fill="#28140F" d="M96.675,205.859c-0.546,0.023-1.073-0.249-1.402-0.635c-0.259-0.304-0.4-0.69-0.413-1.089
				c-0.111-7.602-7.129-18.404-7.199-18.515c-0.474-0.722-0.341-1.684,0.314-2.245c9.39-8.064,29.349-10.277,30.194-10.368
				c0.575-0.055,1.146,0.178,1.514,0.623c0.371,0.45,0.481,1.054,0.308,1.605l-5.421,17.091c-0.098,0.315-0.288,0.596-0.54,0.809
				C98.733,205.78,97.369,205.859,96.675,205.859z M91.364,185.072c1.736,2.884,5.645,9.899,6.68,16.278
				c2.863-2.036,8.379-6.399,13.401-10.542l4.446-14.017C110.538,177.616,98.327,179.971,91.364,185.072z"/>
		</g>
		<g>
			<path fill="#01A79D" d="M134.484,264.979l-13.729,39.668c0,0-21.994-0.023-29.476-3.467c-2.476-9.715-2.126-40.293-2.126-40.293
				l28.749-18.926L134.484,264.979z"/>
			<path fill="#28140F" d="M120.756,306.364L120.756,306.364c-0.912,0-22.46-0.062-30.193-3.623
				c-0.469-0.218-0.815-0.636-0.946-1.136c-2.505-9.819-2.193-39.484-2.178-40.741c0.005-0.569,0.297-1.103,0.77-1.412
				l28.753-18.926c0.766-0.509,1.798-0.32,2.335,0.43l16.581,23.017c0.328,0.453,0.411,1.039,0.229,1.565l-13.725,39.67
				C122.141,305.9,121.489,306.364,120.756,306.364z M92.757,299.932c6.604,2.518,22.286,2.92,26.784,2.981l13.027-37.656
				L117.469,244.3l-26.603,17.517C90.835,266.797,90.793,290.768,92.757,299.932z"/>
		</g>
		<g>
			<path fill="#046938" d="M120.629,166.81c-8.718-5.535-35.305,90.32-35.305,90.32s-1.894,3.986,9.934,5.619
				c11.836,1.634,32.941,5.831,44.463,1.384c7.648-2.039,6.628-9.908,6.628-9.908s2.304-77.615-10.136-84.073
				C136.213,170.151,129.353,172.341,120.629,166.81z"/>
			<path fill="#28140F" d="M126.047,267.834c-8.562,0-18.021-1.438-25.62-2.585c-1.945-0.295-3.761-0.569-5.4-0.796
				c-6.136-0.85-9.75-2.432-11.048-4.833c-0.741-1.382-0.465-2.55-0.292-3.03c7.674-27.652,26.5-91.729,36.17-91.729
				c0.604,0,1.176,0.166,1.696,0.497c8.001,5.077,14.116,3.16,14.147,3.152c0.426-0.13,0.903-0.09,1.301,0.114
				c2.143,1.113,8.656,4.49,10.661,45.902c0.931,19.186,0.457,37.881,0.409,39.617c0.367,3.287-0.812,9.762-7.909,11.65
				C136.687,267.148,132.011,267.834,126.047,267.834z M86.906,257.816c0.027,0,0.055,0.127,0.193,0.316
				c0.431,0.588,2.11,2.049,8.398,2.911c1.649,0.229,3.479,0.509,5.445,0.806c7.483,1.133,16.802,2.549,25.104,2.549
				c5.455,0,9.851-0.631,13.054-1.871c6.297-1.685,5.578-7.823,5.547-8.084c-0.016-0.086-0.02-0.182-0.016-0.271
				c0.861-28.996-0.781-76.212-8.715-82.178c-0.706,0.138-1.83,0.304-3.295,0.304c-2.985,0-7.653-0.698-12.912-4.04
				c-5.18,0.979-20.764,46.178-32.733,89.334c-0.02,0.079-0.051,0.158-0.082,0.236C86.898,257.816,86.901,257.816,86.906,257.816z"
				/>
		</g>
		<g>
			<path fill="#3C2517" d="M58.963,364.723l8.572,8.926c0,0-2.264,23.941,0.604,29.344c2.868,5.4-4.178,12.262-10.455,2.71
				c-6.276-9.552-18.376-34.957-18.376-34.957S38.273,363.323,58.963,364.723z"/>
			<path fill="#28140F" d="M64.308,412.188c-2.016,0-5.045-0.957-8.06-5.537c-6.269-9.545-17.998-34.129-18.494-35.168
				c-0.075-0.157-0.127-0.328-0.151-0.502c-0.026-0.205-0.231-2.056,1.421-3.947c2.927-3.362,9.713-4.731,20.053-4.021
				c0.431,0.027,0.83,0.213,1.125,0.524l8.573,8.921c0.347,0.357,0.521,0.855,0.473,1.354c-0.86,9.062-1.504,24.775,0.411,28.377
				c1.194,2.254,1.147,4.86-0.123,6.979C68.392,411.061,66.442,412.188,64.308,412.188z M41.035,370.376
				c1.526,3.188,12.356,25.664,18.089,34.383c1.669,2.537,3.555,3.992,5.184,3.992c0.931,0,1.765-0.492,2.281-1.356
				c0.646-1.072,0.659-2.418,0.031-3.599c-2.813-5.295-1.286-24.83-0.868-29.524l-7.566-7.875c-1.449-0.082-2.83-0.131-4.111-0.131
				c-8.316,0-11.298,1.812-12.337,2.889C41.24,369.675,41.082,370.127,41.035,370.376z"/>
		</g>
		<g>
			<path fill="#3C2517" d="M147.847,384.741l13.69-1.089c0,0,22.124,13.557,28.204,14.19c6.079,0.64,7.834,10.31-3.591,10.187
				c-11.425-0.121-39.262-4.271-39.262-4.271S138.272,399.868,147.847,384.741z"/>
			<path fill="#28140F" d="M186.367,409.75c-0.007,0-0.225-0.005-0.236-0.005c-11.413-0.122-38.355-4.115-39.499-4.287
				c-0.154-0.024-0.307-0.067-0.449-0.136c-0.123-0.055-3.003-1.389-4.128-5.147c-1.281-4.276,0.179-9.78,4.34-16.354
				c0.289-0.452,0.779-0.75,1.318-0.793l13.683-1.092c0.366-0.021,0.725,0.06,1.037,0.248c6.063,3.717,22.819,13.461,27.485,13.951
				c3.729,0.389,6.507,3.469,6.32,7.006C196.073,406.333,193.395,409.75,186.367,409.75z M147.44,402.1
				c3.041,0.45,28.185,4.096,38.734,4.209l0.192,1.721v-1.717c3.866,0,6.333-1.285,6.439-3.353c0.075-1.464-1.141-3.188-3.247-3.403
				c-5.97-0.625-24.618-11.82-28.445-14.148l-12.266,0.979c-4.047,6.655-4.153,10.625-3.498,12.803
				C145.887,400.98,147.026,401.84,147.44,402.1z"/>
		</g>
		<g>
			<g>
				<path fill="#DB9C57" d="M155.536,205.102l10.455,5.657c0,0,3.787,2.821,9.212-3.502c5.425-6.324,21.687-19.64,21.687-19.64
					l-1.731-9.468c0,0,1.267-2.853,3.002-4.316c1.728-1.464,5.267-6.916,8.284-6.317c3.019,0.601,18.286,5.445,14.969,14.416
					c-3.314,8.971-8.064,8.605-12.681,10.648c-4.174,9.48-32.953,34.157-32.953,34.157s-3.878,5.278-27.684-4.316
					C121.438,211.679,155.536,205.102,155.536,205.102z"/>
			</g>
			<g>
				<path fill="#211010" d="M170.283,229.905c-5.452,0-13.13-1.98-22.826-5.89c-8.021-3.231-11.591-6.426-11.244-10.061
					c0.643-6.667,15.938-9.949,19-10.537c0.395-0.071,0.794-0.012,1.145,0.177l10.451,5.65c0.074,0.04,0.143,0.087,0.208,0.134l0,0
					c0.012,0,2.671,1.673,6.877-3.239c4.841-5.641,17.765-16.436,21.122-19.209l-1.55-8.474c-0.059-0.34-0.021-0.69,0.117-1.006
					c0.15-0.328,1.487-3.263,3.468-4.935c0.352-0.3,0.912-0.932,1.505-1.606c2.209-2.513,5.108-5.701,8.225-5.078
					c2.473,0.49,12.389,3.535,15.697,9.453c1.29,2.3,1.477,4.738,0.549,7.248c-2.938,7.945-7.204,9.377-10.969,10.647
					c-0.685,0.229-1.368,0.458-2.054,0.734c-5.051,9.895-30.899,32.232-33.006,34.047
					C176.406,228.599,174.662,229.905,170.283,229.905z M155.268,206.913c-6.355,1.31-15.347,4.435-15.634,7.373
					c-0.061,0.648,0.41,3.039,9.104,6.542c11.572,4.664,18.101,5.638,21.545,5.638c3.26,0,4.197-0.852,4.205-0.86
					c0.075-0.107,0.072-0.087,0.171-0.173c0.286-0.241,28.531-24.528,32.499-33.542c0.175-0.395,0.486-0.707,0.878-0.88
					c0.973-0.43,1.951-0.762,2.926-1.088c3.618-1.22,6.474-2.182,8.841-8.585c0.568-1.542,0.462-2.971-0.322-4.371
					c-2.454-4.387-10.656-7.224-13.371-7.76h-0.007c-1.469,0-3.746,2.584-4.968,3.973c-0.706,0.808-1.318,1.499-1.866,1.964
					c-0.975,0.825-1.869,2.352-2.324,3.247l1.633,8.916c0.111,0.615-0.116,1.243-0.6,1.641c-0.16,0.135-16.206,13.292-21.473,19.431
					c-2.691,3.136-5.452,4.729-8.21,4.729c-1.685,0-2.797-0.615-3.199-0.879L155.268,206.913z"/>
			</g>
		</g>
		<g>
			<path fill="#046938" d="M156.546,202.964l-9.12,19.438c0,0-29.097-10.301-34.427-17.777
				C107.67,197.141,110.719,172.203,156.546,202.964z"/>
			<path fill="#28140F" d="M147.426,224.117c-0.189,0-0.388-0.031-0.577-0.098c-3.029-1.07-29.763-10.699-35.249-18.396
				c-2.21-3.102-3.283-8.854-0.932-13.418c1.396-2.71,4.485-5.941,11.275-5.941c8.501,0,20.464,5.137,35.558,15.271
				c0.702,0.47,0.958,1.389,0.6,2.158l-9.121,19.438C148.688,223.747,148.071,224.117,147.426,224.117z M121.943,189.704
				c-4.06,0-6.825,1.373-8.219,4.076c-1.645,3.188-0.931,7.594,0.676,9.847c3.882,5.444,23.279,13.385,32.133,16.625l7.827-16.681
				C137.037,192.139,127.186,189.704,121.943,189.704z"/>
		</g>
	</g>
</g>
</svg>
