<svg xmlns="http://www.w3.org/2000/svg" width="430" height="430" style="width:100%;height:100%;transform:translate3d(0,0,0);content-visibility:visible" viewBox="0 0 430 430"><defs><clipPath id="b"><path d="M0 0h430v430H0z"/></clipPath><clipPath id="c"><path d="M0 0h430v430H0z"/></clipPath><clipPath id="d"><path d="M0 0h430v430H0z"/></clipPath><path id="a" fill="red" d="m13.105 56.848-58.547-25.143 29.743-69.258C-8.756-53.72 9.979-61.198 26.146-54.255h.001c16.167 6.943 23.644 25.678 16.701 41.845L13.105 56.848z" style="display:block" transform="translate(226.441 158.377)"/><mask id="e" mask-type="alpha"><use xmlns:ns1="http://www.w3.org/1999/xlink" ns1:href="#a"/></mask></defs><g clip-path="url(#b)"><g clip-path="url(#c)" style="display:block"><g fill="#4BB3FD" style="display:block"><path d="M237.718 101.618a20.23 20.23 0 0 0-1.149.099l-77.296 6.84-5.21.46-44.51 31.856c-13.404 19.559 6.537 32.007 6.537 32.007l50.13-35.952 60.434-3.323" class="secondary"/><path fill-opacity=".5" d="M66.302-35.965a20.23 20.23 0 0 0-1.149.099l-77.296 6.84-5.209.46L-61.864 3.29c-13.403 19.559 6.538 32.007 6.538 32.007L-5.195-.655l60.433-3.323" class="secondary" style="mix-blend-mode:multiply" transform="translate(171.416 137.583)"/></g><path fill="#F9C9C0" d="M-15.824 23.351 4.7 32.166c2.876 1.235 6.241-.108 7.476-2.984L25.8-2.544c4.13-9.617-.359-20.864-9.976-24.994l-8.269-3.551c-9.617-4.13-20.864.359-24.994 9.976L-25.8-1.643c-4.13 9.617.359 20.864 9.976 24.994z" class="senary" style="display:block" transform="translate(276.428 59.137)"/><g opacity=".5" style="mix-blend-mode:multiply;display:block"><path fill="#F9C9C0" d="m-11.081 4.967 8.362-19.47c4.063-9.462 15.013-13.941 24.524-10.15-.152-.07-.295-.154-.45-.221l-8.269-3.551c-9.617-4.13-20.864.359-24.994 9.976l-8.361 19.47c-4.13 9.617.359 20.864 9.976 24.994l9.188 3.946c-9.617-4.13-14.106-15.377-9.976-24.994z" class="senary" opacity="1" style="mix-blend-mode:multiply" transform="translate(270.897 56.473)"/></g><path fill="#B26836" d="M22.48 14.017c2.726-9.121-1.855-19.155-10.898-23.039l-8.078-3.469c-5.316-2.283-11.126-1.922-15.961.474a22.608 22.608 0 0 0-3.781 2.475 18.851 18.851 0 0 0-5.252 7.027l-1.772 4.127c2.155-1.217 5.314-2.466 8.685-2.2C-7.772-.052-7.313 6.28-.172 8.546c7.92 2.512 12.719-3.261 17.812.098 1.738 1.146 3.696 3.095 4.838 5.379l.002-.006z" class="quaternary" style="display:block" transform="translate(280.502 40.535)"/><g opacity=".5" style="mix-blend-mode:multiply;display:block"><path fill="#B26836" d="M9.012-6.283A18.816 18.816 0 0 0 3.54-7.712l-.116-.012a18.557 18.557 0 0 0-1.712-.09c-.079-.001-.158.002-.237.002-.529.003-1.057.025-1.582.071-.123.011-.245.028-.367.042a19.623 19.623 0 0 0-4.641 1.101c-.294.109-.586.227-.874.351-.051.021-.101.047-.152.069-.264.116-.527.236-.785.364a22.608 22.608 0 0 0-3.781 2.475 18.91 18.91 0 0 0-4.718 5.899c-.049.095-.095.192-.142.288-.135.276-.269.555-.392.84l-1.772 4.127c2.155-1.217 5.314-2.466 8.685-2.2a8.99 8.99 0 0 1 2.898.707C-1.669-2.224 8.677-6.12 17.731-2.512c-.152-.07-.295-.153-.45-.22L9.012-6.283z" class="quaternary" opacity="1" style="mix-blend-mode:multiply" transform="translate(274.971 34.326)"/></g><g clip-path="url(#d)" style="display:block"><g style="display:block"><g fill="#3A3347"><path d="m181.501 188.333-31.199 80.364-75.725 46.867s24.691 39.076 29.476 46.556c15.727-1.978 12.439-29.859 12.439-29.859l62.026-33.206 61.499-84.594M132.795 323.523l-20.004-31.604m-42.674 15.497 38.631 61.025" class="primary"/><path fill-opacity=".5" d="M83.312-172.422 52.113-92.058l-75.725 46.867S1.079-6.115 5.864 1.365C21.591-.613 18.303-28.494 18.303-28.494L80.329-61.7l61.499-84.594M34.606-37.232 14.602-68.836m-42.674 15.497L10.559 7.686" class="primary" style="mix-blend-mode:multiply" transform="translate(98.189 360.755)"/></g><path fill="#F24C00" d="m113.127 291.705-38.55 23.859s24.691 39.076 29.476 46.556c15.727-1.978 12.439-29.859 12.439-29.859l16.476-8.82m-62.851-16.025 38.631 61.025" class="tertiary"/><path fill="#F24C00" fill-opacity=".5" d="m14.938-69.05-38.55 23.859S1.079-6.115 5.864 1.365C21.591-.613 18.303-28.494 18.303-28.494l16.476-8.82m-62.851-16.025L10.559 7.686" class="tertiary" style="mix-blend-mode:multiply" transform="translate(98.189 360.755)"/><path fill="none" stroke="#F24C00" stroke-linecap="round" stroke-linejoin="round" d="m113.127 291.705-38.55 23.859s24.691 39.076 29.476 46.556c15.727-1.978 12.439-29.859 12.439-29.859l16.476-8.82m-62.851-16.025 38.631 61.025" class="tertiary"/><path fill="none" stroke="#F24C00" stroke-linecap="round" stroke-linejoin="round" stroke-opacity=".5" d="m14.938-69.05-38.55 23.859S1.079-6.115 5.864 1.365C21.591-.613 18.303-28.494 18.303-28.494l16.476-8.82m-62.851-16.025L10.559 7.686" class="tertiary" style="mix-blend-mode:multiply" transform="translate(98.189 360.755)"/></g><g style="display:block"><path fill="none" stroke="#3A3347" stroke-linecap="round" stroke-linejoin="round" stroke-width="7" d="M71.288 318.259a4.81 4.81 0 1 0 5.144 8.129 4.81 4.81 0 0 0-5.144-8.129zm12.164 19.216a4.81 4.81 0 1 0 5.146 8.129 4.81 4.81 0 0 0-5.146-8.129zm12.164 19.216a4.81 4.81 0 1 0 5.146 8.128 4.81 4.81 0 1 0-5.146-8.128z" class="primary"/><path fill="#3A3347" d="M71.288 318.259a4.81 4.81 0 1 0 5.144 8.129 4.81 4.81 0 0 0-5.144-8.129zm12.164 19.216a4.81 4.81 0 1 0 5.146 8.129 4.81 4.81 0 0 0-5.146-8.129zm12.164 19.216a4.81 4.81 0 1 0 5.146 8.128 4.81 4.81 0 1 0-5.146-8.128z" class="primary"/><path fill="none" stroke="#FFC738" stroke-width="2" d="M71.288 318.259a4.81 4.81 0 1 0 5.144 8.129 4.81 4.81 0 0 0-5.144-8.129zm12.164 19.216a4.81 4.81 0 1 0 5.146 8.129 4.81 4.81 0 0 0-5.146-8.129zm12.164 19.216a4.81 4.81 0 1 0 5.146 8.128 4.81 4.81 0 1 0-5.146-8.128z" class="quinary"/><path fill="none" stroke="#F24C00" stroke-linecap="round" stroke-linejoin="round" stroke-width="7" d="m70.617 307.166 38.631 61.025" class="tertiary"/></g><g style="display:block"><path fill="#3A3347" d="m181.001 190.083 48.637 113.626.477 42.827.509 45.649h53.51c8.166-14.518-17.671-26.979-17.671-26.979l3.953-68.907-30.899-81.088"/><path fill="#F24C00" d="m230.115 346.536.509 45.649h53.51c8.166-14.518-17.671-26.979-17.671-26.979l1.048-18.263"/><path fill="none" stroke="#F24C00" stroke-linecap="round" stroke-linejoin="round" d="m230.115 346.536.509 45.649h53.51c8.166-14.518-17.671-26.979-17.671-26.979l1.048-18.263"/></g><g style="display:block"><path fill="#3A3347" d="M230.434 396.995a4.81 4.81 0 1 0 9.622 0 4.81 4.81 0 0 0-9.622 0zm22.742 0a4.81 4.81 0 1 0 9.62 0 4.81 4.81 0 0 0-9.62 0zm22.743 0a4.81 4.81 0 1 0 9.62 0 4.81 4.81 0 1 0-9.62 0z" class="primary"/><path fill="none" stroke="#3A3347" stroke-linecap="round" stroke-linejoin="round" stroke-width="7" d="M230.434 396.995a4.81 4.81 0 1 0 9.622 0 4.81 4.81 0 0 0-9.622 0zm22.742 0a4.81 4.81 0 1 0 9.62 0 4.81 4.81 0 0 0-9.62 0zm22.743 0a4.81 4.81 0 1 0 9.62 0 4.81 4.81 0 1 0-9.62 0z" class="primary"/><path fill="none" stroke="#FFC738" stroke-width="2" d="M230.434 396.995a4.81 4.81 0 1 0 9.622 0 4.81 4.81 0 0 0-9.622 0zm22.742 0a4.81 4.81 0 1 0 9.62 0 4.81 4.81 0 0 0-9.62 0zm22.743 0a4.81 4.81 0 1 0 9.62 0 4.81 4.81 0 1 0-9.62 0z" class="quinary"/><path fill="none" stroke="#F24C00" stroke-linecap="round" stroke-linejoin="round" stroke-width="7" d="M220.646 391.685h72.225" class="tertiary"/></g><path fill="#4BB3FD" d="m13.105 56.848-58.547-25.143 29.743-69.258C-8.756-53.72 9.979-61.198 26.146-54.255h.001c16.167 6.943 23.644 25.678 16.701 41.845L13.105 56.848z" class="secondary" style="display:block" transform="translate(226.441 158.377)"/></g><g mask="url(#e)" opacity=".5" style="mix-blend-mode:multiply;display:block"><path fill="#4BB3FD" d="m222.381 136.081 28.255 61.987 59.36 37.436s-7.441 22.372-29.66 13.906l-41.539-35.888-3.295-10.112-23.6-72.407" class="secondary" opacity="1"/></g><path fill="#4BB3FD" d="M-22.452-52.558 4.241 1.553l53.228 31.542s-3.391 23.332-26.752 18.904l-47.202-28.026-5.022-9.375-35.962-67.13" class="secondary" style="display:block" transform="translate(265.081 180.465)"/></g></g></svg>